<svg xmlns="http://www.w3.org/2000/svg" data-name="Layer 1" viewBox="0 0 67.19 118.35000000000001" x="0px" y="0px"><title>HikePin</title><path d="M51.2,3.66A33.59,33.59,0,0,0,17.62,37.24s-2.1,25.45,33.56,61.1c29.91-29.9,33.25-52.63,33.55-59.17,0-.64.06-1.28.06-1.93A33.59,33.59,0,0,0,51.2,3.66Zm.33,13.47a3.72,3.72,0,1,1-3.72,3.72A3.73,3.73,0,0,1,51.53,17.13Zm-14.85,17,1.85-8.06a1.6,1.6,0,0,1,1.92-1.2l3,.68a1.61,1.61,0,0,1,1.2,1.93l-1.85,8.05a1.61,1.61,0,0,1-1.92,1.21l-3-.68A1.61,1.61,0,0,1,36.68,34.16Zm8,20.48a2.2,2.2,0,1,1-4.29-1l2.71-11.79c.05.07.09.14.15.21L46.66,46Zm10.12-.47a2.2,2.2,0,0,1-4.4,0v-6.6l-.1-.09-5.52-6.25a3.39,3.39,0,0,1-.9-3.12l2.36-10.26a3.38,3.38,0,0,1,4-2.52,3.06,3.06,0,0,1,.75.28,2.12,2.12,0,0,1,.85.58l3.53,4h4a2.2,2.2,0,1,1,0,4.4h-5a2.2,2.2,0,0,1-1.76-.9L52,33l-1.53,6.67c0,.13-.08.24-.12.36L54,44.18a2.49,2.49,0,0,1,.54,1.09,2.18,2.18,0,0,1,.23.95Zm11-26.11L59.31,56a.77.77,0,0,1-.91.56.75.75,0,0,1-.56-.9l6.42-27.95a.75.75,0,0,1,1.47.34Z" transform="translate(-17.6 -3.66)"/><text x="0" y="109.68" fill="#000000" font-size="5px" font-weight="bold" font-family="'Helvetica Neue', Helvetica, Arial-Unicode, Arial, Sans-serif">Created by Ashley Weiss</text><text x="0" y="114.68" fill="#000000" font-size="5px" font-weight="bold" font-family="'Helvetica Neue', Helvetica, Arial-Unicode, Arial, Sans-serif">from the Noun Project</text></svg>